<?xml version="1.0" encoding="utf-8"?>
<!-- Generator: Adobe Illustrator 22.1.0, SVG Export Plug-In . SVG Version: 6.00 Build 0)  -->
<svg version="1.1" xmlns="http://www.w3.org/2000/svg" xmlns:xlink="http://www.w3.org/1999/xlink" x="0px" y="0px"
	 viewBox="0 0 119.2 173.3" style="enable-background:new 0 0 119.2 173.3;" xml:space="preserve">
<style type="text/css">
	.st0{fill:#FFFFFF;}
	.st1{fill:#992031;}
	.st2{fill-rule:evenodd;clip-rule:evenodd;}
	.st3{fill:none;}
	.st4{fill:#972519;}
	.st5{fill:#E3000F;}
	.st6{fill:#C61420;}
	.st7{fill:#AD1D2B;}
	.st8{fill:#B21B29;}
	.st9{fill:#B61A27;}
	.st10{fill:#A21F2E;}
	.st11{fill:#FDEAE1;}
	.st12{fill:#FBD4C4;}
	.st13{fill:#F8BDA6;}
	.st14{fill:#F5A588;}
	.st15{fill:#F18C6C;}
	.st16{fill:#EE7151;}
	.st17{fill:#EA5439;}
	.st18{fill:#E73523;}
</style>
<g id="Ebene_3">
	<rect x="0.2" y="-0.4" class="st0" width="118.8" height="173.8"/>
</g>
<g id="Vordergrund">
	<g>
		<g>
			<g>
				<path class="st1" d="M36.2,78.8v-4.3h2.2v0.5h-1.7v1.4h1.6v0.5h-1.6v1.5h1.7v0.5H36.2z"/>
				<path class="st1" d="M39.1,74.4h0.6V75h-0.6V74.4z M39.6,78.8h-0.5v-3h0.5V78.8z"/>
				<path class="st1" d="M42.1,78.8v-2.1c0-0.3-0.1-0.6-0.5-0.6C41,76.1,41,76.6,41,77v1.8h-0.5v-2.4c0-0.2,0-0.4,0-0.6H41v0.4h0
					c0.2-0.3,0.4-0.5,0.8-0.5c0.6,0,0.8,0.4,0.8,1v2.1H42.1z"/>
				<path class="st1" d="M44,77.4c0,0.8,0.2,1,0.6,1c0.3,0,0.5-0.3,0.5-0.6h0.5c0,0.7-0.4,1-1.1,1c-0.6,0-1.2-0.2-1.2-1.5
					c0-0.9,0.1-1.6,1.2-1.6c0.9,0,1.1,0.5,1.1,1.5v0.3H44z M45.1,77c0-0.9-0.2-1-0.6-1c-0.3,0-0.6,0.1-0.6,1H45.1z"/>
				<path class="st1" d="M48.5,78.8h-0.6v-4.3h0.6V78.8z"/>
				<path class="st1" d="M51.1,78.8v-2.1c0-0.3-0.1-0.6-0.5-0.6C50,76.1,50,76.6,50,77v1.8h-0.5v-2.4c0-0.2,0-0.4,0-0.6H50v0.4h0
					c0.2-0.3,0.4-0.5,0.8-0.5c0.6,0,0.8,0.4,0.8,1v2.1H51.1z"/>
				<path class="st1" d="M52.4,74.4H53V75h-0.6V74.4z M52.9,78.8h-0.5v-3h0.5V78.8z"/>
				<path class="st1" d="M53.8,75.7v-0.6l0.5-0.2v0.8H55v0.4h-0.7V78c0,0.2,0,0.4,0.4,0.4c0,0,0.1,0,0.2,0v0.4c-0.2,0-0.3,0-0.5,0
					c-0.5,0-0.7-0.2-0.7-0.5v-2.2h-0.5v-0.4H53.8z"/>
				<path class="st1" d="M55.4,74.4H56V75h-0.6V74.4z M55.9,78.8h-0.5v-3h0.5V78.8z"/>
				<path class="st1" d="M58.4,78.3L58.4,78.3c-0.2,0.3-0.4,0.5-0.8,0.5c-0.6,0-0.8-0.4-0.8-1c0-0.9,0.9-1,1.6-0.9
					c0-0.4,0-0.8-0.5-0.8c-0.3,0-0.5,0.2-0.5,0.5h-0.5c0-0.7,0.4-0.9,1-0.9c0.8,0,1,0.4,1,0.9v1.5c0,0.2,0,0.5,0.1,0.7h-0.5V78.3z
					 M57.2,77.9c0,0.3,0.1,0.6,0.5,0.6c0.3,0,0.7-0.2,0.6-1.2C57.9,77.3,57.2,77.2,57.2,77.9z"/>
				<path class="st1" d="M59.8,75.7v-0.6l0.5-0.2v0.8H61v0.4h-0.7V78c0,0.2,0,0.4,0.4,0.4c0,0,0.1,0,0.2,0v0.4c-0.2,0-0.3,0-0.5,0
					c-0.5,0-0.7-0.2-0.7-0.5v-2.2h-0.5v-0.4H59.8z"/>
				<path class="st1" d="M61.4,74.4H62V75h-0.6V74.4z M61.9,78.8h-0.5v-3h0.5V78.8z"/>
				<path class="st1" d="M62.4,75.7H63l0.7,2.6h0l0.7-2.6h0.5l-0.9,3h-0.6L62.4,75.7z"/>
				<path class="st1" d="M65.9,77.4c0,0.8,0.2,1,0.6,1c0.3,0,0.5-0.3,0.5-0.6h0.5c0,0.7-0.4,1-1.1,1c-0.6,0-1.2-0.2-1.2-1.5
					c0-0.9,0.1-1.6,1.2-1.6c0.9,0,1.1,0.5,1.1,1.5v0.3H65.9z M67.1,77c0-0.9-0.2-1-0.6-1c-0.3,0-0.6,0.1-0.6,1H67.1z"/>
				<path class="st1" d="M69.4,75.7H70l0.7,2.6h0l0.7-2.6h0.5l-0.9,3h-0.6L69.4,75.7z"/>
				<path class="st1" d="M72.4,77.3c0-0.9,0.1-1.6,1.2-1.6c1.1,0,1.2,0.7,1.2,1.6c0,1.3-0.5,1.5-1.2,1.5
					C72.9,78.8,72.4,78.6,72.4,77.3z M74.1,77.1c0-0.8-0.3-1-0.6-1c-0.4,0-0.6,0.2-0.6,1c0,1,0.1,1.3,0.6,1.3
					C74,78.4,74.1,78.1,74.1,77.1z"/>
				<path class="st1" d="M77.1,78.8v-2.1c0-0.3-0.1-0.6-0.5-0.6c-0.5,0-0.6,0.5-0.6,0.9v1.8h-0.5v-2.4c0-0.2,0-0.4,0-0.6h0.5v0.4h0
					c0.2-0.3,0.4-0.5,0.8-0.5c0.6,0,0.8,0.4,0.8,1v2.1H77.1z"/>
			</g>
			<polygon class="st1" points="57,104.3 57.5,104.3 57.5,112.8 57,112.8 57,104.3 			"/>
			<polygon class="st1" points="36.2,82.6 95.7,82.6 95.7,83 36.2,83 36.2,82.6 			"/>
			<polygon class="st1" points="36.2,99.6 95.7,99.6 95.7,100 36.2,100 36.2,99.6 			"/>
			<polygon class="st1" points="36.2,116.6 95.7,116.6 95.7,117 36.2,117 36.2,116.6 			"/>
			<polygon class="st1" points="61.7,87.3 62.1,87.3 62.1,95.8 61.7,95.8 61.7,87.3 			"/>
			<g>
				<g>
					<path d="M81.4,84.4"/>
				</g>
			</g>
			<path class="st2" d="M72.1,107.8v0.7h3.3c0.1,0,0.1,0,0.1-0.1v-0.5c0-0.1,0-0.1-0.1-0.1H72.1L72.1,107.8z M71.6,107.3h3.9
				c0.3,0,0.5,0.2,0.5,0.5v0.5c0,0.3-0.2,0.5-0.5,0.6c0.3,0.1,0.5,0.4,0.5,0.8h-0.6c0-0.4-0.2-0.6-0.6-0.6h-2.7v0.6h-0.5V107.3
				L71.6,107.3z M70.4,109.1c0.1,0,0.1,0,0.1-0.1v-1.1c0-0.1,0-0.1-0.1-0.1H68h-0.7c-0.1,0-0.1,0-0.1,0.1v1.1c0,0.1,0,0.1,0.1,0.1
				H70.4L70.4,109.1z M70.5,107.3c0.4,0,0.5,0.2,0.5,0.5v1.3c0,0.4-0.2,0.5-0.5,0.5h-3.3c-0.4,0-0.5-0.2-0.5-0.5v-1.3
				c0-0.4,0.2-0.5,0.5-0.5H68H70.5L70.5,107.3z M62.2,107.8v0.7h3.2c0.1,0,0.1,0,0.1-0.1v-0.5c0-0.1,0-0.1-0.1-0.1H62.2L62.2,107.8z
				 M61.7,107.3h3.9c0.3,0,0.5,0.2,0.5,0.5v0.7c0,0.4-0.2,0.5-0.5,0.5h-3.3v0.6h-0.5V107.3L61.7,107.3z M81,107.3v0.5h-3.8
				c-0.1,0-0.1,0-0.1,0.1v0.3c0,0.1,0,0.1,0.1,0.1h3.3c0.3,0,0.5,0.2,0.5,0.5v0.4c0,0.4-0.2,0.5-0.5,0.5h-3.9v-0.5h3.7
				c0.1,0,0.1,0,0.1-0.1v-0.3c0-0.1,0-0.1-0.1-0.1h-3.3c-0.4,0-0.5-0.2-0.5-0.5v-0.3c0-0.4,0.2-0.5,0.5-0.5H81L81,107.3z
				 M85.9,107.8h-3.6c-0.1,0-0.1,0-0.1,0.1v1.1c0,0.1,0,0.1,0.1,0.1h3.6v0.5h-3.7c-0.3,0-0.5-0.2-0.5-0.5v-1.3
				c0-0.4,0.2-0.5,0.5-0.5h3.7V107.8L85.9,107.8z M86.5,107.3H87v0.9h3.1v-0.9h0.5v2.3h-0.5v-0.9H87v0.9h-0.5V107.3L86.5,107.3z
				 M91.2,107.3h4.5v0.5h-3.9v0.5h3.9v0.4h-3.9v0.5h3.9v0.5h-4.5V107.3L91.2,107.3z"/>
			<path class="st2" d="M44,108.5h0.5c0.4,0,0.6-0.1,0.6-0.4c0-0.3-0.2-0.4-0.6-0.4h-1.7V107h1.9c1,0,1.1,0.7,1.1,1.1
				c0,0.4-0.2,1-1.1,1h-0.5c-0.6,0-0.7,0.2-0.7,0.6v0.2h2.2v0.6h-3v-0.9C42.8,108.9,43.2,108.5,44,108.5L44,108.5z M47.4,109.9h-0.8
				v-2.3h0.8c0.6,0,0.9,0.3,0.9,1.1C48.3,109.7,48,109.9,47.4,109.9L47.4,109.9z M50.5,107.7h1.3V107h-1.6c-0.8,0-1.2,0.5-1.2,1.2
				c-0.1-0.8-0.7-1.2-1.6-1.2h-1.6c-0.6-1.3-2-2.2-3.5-2.2c-2.2,0-3.9,1.8-3.9,3.9c0,2.2,1.8,3.9,3.9,3.9c1.5,0,2.8-0.9,3.5-2.1h1.6
				c0.4,0,0.7,0,1.1-0.3c0.3-0.2,0.4-0.5,0.5-0.9v1.2h0.7l0-1.4h1.8v-0.6h-1.8l0-0.2C49.8,107.9,49.9,107.7,50.5,107.7L50.5,107.7z"
				/>
			<g>
				<path d="M69.9,87.5c0,0.5-0.4,0.9-0.9,0.9c-0.5,0-0.9-0.4-0.9-0.9s0.4-0.9,0.9-0.9C69.5,86.6,69.9,87,69.9,87.5L69.9,87.5z
					 M71.8,90.8h-4.2v-0.6h4.2v-0.4c0-0.5-0.4-0.9-0.9-0.9h-3.7c-0.5,0-0.9,0.4-0.9,0.9v2h4.2v0.5h-4.2v0.4c0,0.5,0.4,0.9,0.9,0.9
					h3.7c0.5,0,0.9-0.4,0.9-0.9V90.8L71.8,90.8z"/>
				<path d="M76.7,92.8c0-0.6-0.4-0.8-0.9-1c-0.4-0.2-0.7-0.3-0.7-0.6c0-0.3,0.2-0.5,0.7-0.5c0.4,0,0.7,0.1,0.8,0.1v-0.4
					c-0.1,0-0.4-0.1-0.8-0.1c-0.7,0-1.1,0.4-1.1,0.9c0,0.6,0.5,0.8,0.9,0.9c0.4,0.1,0.8,0.3,0.8,0.6c0,0.3-0.2,0.5-0.7,0.5
					c-0.4,0-0.8-0.1-0.9-0.2l-0.1,0.4c0.1,0.1,0.5,0.2,1.1,0.2C76.2,93.8,76.7,93.4,76.7,92.8L76.7,92.8z"/>
				<path class="st2" d="M79.4,92.5c0-0.8-0.3-1.2-0.9-1.2c-0.4,0-0.6,0.2-0.7,0.4l0-0.4h-0.4v3.4h0.5v-1.1c0.1,0.1,0.3,0.2,0.6,0.2
					C79,93.8,79.4,93.3,79.4,92.5L79.4,92.5z M78.9,92.5c0,0.2,0,0.3-0.1,0.5c-0.1,0.3-0.3,0.4-0.6,0.4c-0.2,0-0.4-0.1-0.5-0.2v-0.6
					c0-0.5,0.2-0.9,0.6-0.9C78.7,91.7,78.9,92,78.9,92.5L78.9,92.5z"/>
				<path class="st2" d="M81.8,93.7v-1.7c0-0.6-0.3-0.8-0.9-0.8c-0.3,0-0.5,0-0.8,0.1v0.4c0.2-0.1,0.4-0.1,0.7-0.1
					c0.4,0,0.6,0.1,0.6,0.5v0.1c0,0-0.2,0-0.2,0c-0.3,0-0.5,0-0.7,0.1c-0.3,0.1-0.5,0.4-0.5,0.7c0,0.5,0.3,0.7,0.7,0.7
					c0.3,0,0.6-0.1,0.7-0.3l0,0.2H81.8L81.8,93.7z M81.3,93.2c-0.1,0.1-0.3,0.2-0.6,0.2c-0.3,0-0.4-0.2-0.4-0.4
					c0-0.4,0.3-0.5,0.8-0.5h0.2V93.2L81.3,93.2z"/>
				<path d="M83.9,91.8v-0.4c0,0-0.1,0-0.2,0c-0.3,0-0.5,0.2-0.7,0.5l0-0.5h-0.4v2.4H83v-1.3c0-0.3,0.2-0.7,0.7-0.7
					C83.8,91.7,83.8,91.8,83.9,91.8L83.9,91.8z"/>
				<path d="M86.4,93.7c-0.3-0.5-0.7-1-1.1-1.4l1-1h-0.6l-0.9,0.9v-2h-0.5v3.5h0.5v-1.2c0.4,0.4,0.7,0.8,1,1.2H86.4L86.4,93.7z"/>
				<path class="st2" d="M88.5,93.7v-1.7c0-0.6-0.3-0.8-0.9-0.8c-0.3,0-0.5,0-0.8,0.1v0.4c0.2-0.1,0.4-0.1,0.7-0.1
					c0.4,0,0.6,0.1,0.6,0.5v0.1c0,0-0.2,0-0.2,0c-0.3,0-0.5,0-0.7,0.1c-0.3,0.1-0.5,0.4-0.5,0.7c0,0.5,0.3,0.7,0.7,0.7
					c0.3,0,0.6-0.1,0.7-0.3l0,0.2H88.5L88.5,93.7z M88,93.2c-0.1,0.1-0.3,0.2-0.6,0.2c-0.3,0-0.4-0.2-0.4-0.4c0-0.4,0.3-0.5,0.8-0.5
					H88V93.2L88,93.2z"/>
				<path d="M90.9,93c0-0.4-0.3-0.6-0.7-0.7c-0.4-0.1-0.6-0.2-0.6-0.4c0-0.2,0.1-0.3,0.5-0.3c0.3,0,0.5,0,0.7,0.1v-0.4
					c-0.2-0.1-0.4-0.1-0.7-0.1c-0.5,0-0.9,0.2-0.9,0.7c0,0.4,0.3,0.6,0.7,0.7c0.3,0.1,0.6,0.2,0.6,0.4c0,0.2-0.1,0.3-0.5,0.3
					c-0.3,0-0.6-0.1-0.7-0.1L89,93.6c0.1,0.1,0.4,0.2,0.9,0.2C90.5,93.8,90.9,93.5,90.9,93L90.9,93z"/>
				<path d="M93.2,93c0-0.4-0.3-0.6-0.7-0.7c-0.4-0.1-0.6-0.2-0.6-0.4c0-0.2,0.1-0.3,0.5-0.3c0.3,0,0.5,0,0.7,0.1v-0.4
					c-0.2-0.1-0.4-0.1-0.7-0.1c-0.5,0-0.9,0.2-0.9,0.7c0,0.4,0.3,0.6,0.7,0.7c0.3,0.1,0.6,0.2,0.6,0.4c0,0.2-0.1,0.3-0.5,0.3
					c-0.3,0-0.6-0.1-0.7-0.1l-0.1,0.3c0.1,0.1,0.4,0.2,0.9,0.2C92.8,93.8,93.2,93.5,93.2,93L93.2,93z"/>
				<path class="st2" d="M95.7,92.4c0-0.7-0.3-1.1-1-1.1c-0.7,0-1.1,0.5-1.1,1.3c0,0.8,0.4,1.3,1.2,1.3c0.3,0,0.5,0,0.7-0.1
					l-0.1-0.4c-0.1,0-0.4,0.1-0.6,0.1c-0.5,0-0.7-0.3-0.7-0.8h1.5C95.7,92.6,95.7,92.5,95.7,92.4L95.7,92.4z M95.2,92.3h-1.1
					c0-0.5,0.2-0.7,0.6-0.7c0.3,0,0.5,0.2,0.5,0.6V92.3L95.2,92.3z"/>
			</g>
			<g>
				<polygon class="st3" points="39.3,92.3 40.2,93.2 40.3,91.8 41.7,91.7 40.4,90.6 41.8,87.5 39.3,89.7 36.4,87.5 38.1,90.6 
					36.5,92 37.9,91.9 36.4,94.9 				"/>
				<path class="st3" d="M50.7,89.6c0-0.1-0.2-0.1-0.2-0.1c-0.2,0-0.3,0-0.3,0.2L50.1,90h0.6C50.7,89.9,50.7,89.7,50.7,89.6z"/>
				<path d="M36.2,95.1H42v-7.8h-5.8V95.1z M36.5,92l1.6-1.4l-1.7-3.1l2.9,2.2l2.5-2.2l-1.4,3l1.3,1.1l-1.5,0.1l0,1.4l-0.9-0.9
					l-3,2.6l1.5-3L36.5,92z"/>
				<path d="M45.1,89c-0.6,0-1.6,0-1.6,0.9c0,0.6,1.3,0.8,1.3,1.1c0,0.2-0.2,0.2-0.3,0.2c-0.1,0-0.3,0-0.3-0.2c0-0.1,0-0.2,0.1-0.2
					h-1.1c0,0.1-0.1,0.2-0.1,0.3c0,0.5,0.9,0.5,1.3,0.5c0.6,0,1.7-0.1,1.7-0.9c0-0.6-1.4-0.8-1.4-1.1c0-0.2,0.2-0.2,0.3-0.2
					c0.1,0,0.2,0,0.2,0.1c0,0.1,0,0.1-0.1,0.2h1.1c0-0.1,0.1-0.2,0.1-0.3C46.3,89.1,45.5,89,45.1,89z"/>
				<path d="M47.7,91c0-0.1,0-0.2,0.1-0.2l0.3-1.2h0.4l0.2-0.5h-0.4l0.2-0.7l-1.3,0.2l-0.2,0.6h-0.3l-0.2,0.5h0.3l-0.4,1.3
					c0,0.1-0.1,0.2-0.1,0.3c0,0.5,0.7,0.5,1,0.5c0.2,0,0.4,0,0.6-0.1l0.2-0.5c-0.1,0-0.2,0-0.3,0C47.8,91.1,47.7,91.1,47.7,91z"/>
				<path d="M49.9,90.5h1.8l0.2-0.7c0,0,0-0.1,0-0.2c0-0.5-1-0.6-1.3-0.6c-0.6,0-1.5,0.1-1.8,0.7c-0.1,0.2-0.1,0.4-0.2,0.6
					c-0.1,0.2-0.2,0.6-0.2,0.8c0,0.5,1,0.6,1.3,0.6c0.6,0,1.5-0.1,1.8-0.7c0-0.1,0.1-0.2,0.1-0.3h-1.3c0,0.1-0.1,0.2-0.1,0.3
					c-0.1,0.2-0.2,0.2-0.3,0.2c-0.1,0-0.2,0-0.2-0.1c0,0,0-0.1,0-0.1L49.9,90.5z M50.1,89.7c0-0.2,0.2-0.2,0.3-0.2
					c0.1,0,0.2,0,0.2,0.1c0,0.1-0.1,0.3-0.1,0.4h-0.6L50.1,89.7z"/>
				<path d="M57.4,89c-0.4,0-0.7,0.1-1.1,0.3l0.1-0.3h-1.2l-0.8,2.6h1.3l0.5-1.8c0.1-0.2,0.2-0.2,0.4-0.2c0.1,0,0.2,0,0.2,0.1
					c0,0,0,0.1,0,0.1l-0.5,1.8h1.3l0.6-2.1c0,0,0-0.1,0-0.1C58.1,89.1,57.6,89,57.4,89z"/>
				<path d="M54.8,89c-0.3,0-0.6,0-0.8,0.2c-0.1,0.1-0.2,0.2-0.2,0.3l0.1-0.5h-1.2l-0.8,2.6h1.3l0.4-1.3c0.1-0.4,0.4-0.5,0.7-0.5
					c0.1,0,0.2,0,0.3,0L54.8,89z"/>
			</g>
		</g>
		<g>
			<path class="st4" d="M19.2,69.6"/>
			<g>
				<path class="st5" d="M27.7,13.2C27.7,13.2,27.7,13.2,27.7,13.2c-0.1-1.7-4-2.8-8.7-2.5c-4.7,0.3-8.4,1.8-8.4,3.5
					c0,0,0,0.1,0,0.1l0.2,1.9c0.3,1.6,3.6,2.6,8.5,2.4c4.2-0.2,8.2-1.7,8.3-3.4L27.7,13.2z M19,11.4c4-0.3,7.6,0.5,7.7,1.8
					c0.1,1.4-3.7,2.6-7.4,2.8c-4,0.2-7.5-0.5-7.6-1.8C11.6,12.8,15.1,11.6,19,11.4z"/>
				<g>
					<path class="st6" d="M26.8,14.7c-1.4,1.1-4.2,2-7.4,2.2c-0.1,0-0.2,0-0.2,0l0.1,1.7c0.1,0,0.1,0,0.2,0c3-0.1,6-1,7.4-2
						L26.8,14.7z"/>
					<path class="st7" d="M26.3,15.1c-1.4,0.9-3.8,1.6-6.6,1.8l0.1,1.7c2.6-0.2,5-0.8,6.5-1.7L26.3,15.1z"/>
					<path class="st8" d="M19.8,18.6c0.2,0,0.3,0,0.5,0l-0.1-1.7c-0.2,0-0.3,0-0.5,0L19.8,18.6z"/>
					<path class="st5" d="M19.2,16.9c-0.3,0-0.6,0-0.9,0l0.1,1.7c0.3,0,0.6,0,0.9,0L19.2,16.9z"/>
					<path class="st9" d="M12.4,15.9l0.2,1.8c0.5,0.2,1.2,0.4,1.9,0.5l-0.2-1.8C13.6,16.4,13,16.2,12.4,15.9z"/>
					<path class="st10" d="M13.1,16.2l0.2,1.8c0.3,0.1,0.6,0.2,1,0.2l-0.2-1.8C13.8,16.4,13.4,16.3,13.1,16.2z"/>
					<path class="st1" d="M13.8,16.4l0.2,1.8c0.3,0.1,0.6,0.1,1,0.2l-0.1-1.8C14.5,16.6,14.2,16.5,13.8,16.4z"/>
					<path class="st0" d="M14.9,16.6l0.1,1.8c1,0.2,2.2,0.2,3.5,0.2l-0.1-1.7C17.1,16.9,15.9,16.8,14.9,16.6z"/>
					<path class="st11" d="M15.3,16.7l0.1,1.8c0.1,0,0.2,0,0.4,0l-0.1-1.7C15.5,16.7,15.4,16.7,15.3,16.7z"/>
					<path class="st12" d="M15.7,16.8l0.1,1.7c0.1,0,0.3,0,0.4,0l-0.1-1.7C15.9,16.8,15.8,16.8,15.7,16.8z"/>
					<path class="st13" d="M16.1,16.8l0.1,1.7c0.4,0,0.7,0,1.1,0.1l-0.1-1.7C16.8,16.9,16.4,16.8,16.1,16.8z"/>
					<path class="st14" d="M16.4,16.8l0.1,1.7c0.1,0,0.3,0,0.4,0l-0.1-1.7C16.7,16.9,16.6,16.9,16.4,16.8z"/>
					<path class="st15" d="M16.8,16.9l0.1,1.7c0.1,0,0.3,0,0.4,0l-0.1-1.7C17.1,16.9,16.9,16.9,16.8,16.9z"/>
					<path class="st16" d="M17.2,16.9l0.1,1.7c0.4,0,0.8,0,1.2,0l-0.1-1.7C18,16.9,17.6,16.9,17.2,16.9z"/>
					<path class="st17" d="M17.6,16.9l0.1,1.7c0.1,0,0.3,0,0.4,0L18,16.9C17.8,16.9,17.7,16.9,17.6,16.9z"/>
					<path class="st18" d="M17.9,16.9l0.1,1.7c0.1,0,0.3,0,0.4,0l-0.1-1.7C18.2,16.9,18.1,16.9,17.9,16.9z"/>
					<path class="st1" d="M20.2,16.8l0.1,1.7c2.1-0.2,4.1-0.7,5.5-1.4l0-1.8C24.4,16,22.4,16.6,20.2,16.8z"/>
				</g>
			</g>
			<g>
				<path class="st5" d="M27.7,25c0,0,0-3.4,0-3.4c0,0,0-0.1,0-0.2c-0.1-1.1-1.2-1.9-2.6-2.4c-0.1,0-0.2,0-0.2,0l-0.4,0.1
					c0,0-0.1,0-0.1,0.1c0,0.1,0.1,0.1,0.1,0.1c1.4,0.5,2.2,1.2,2.2,2c0,1.6-3.1,3-6.9,3.2c-3.6,0.2-7-0.8-7.2-2.4
					c-0.1-0.8,0.6-1.6,1.9-2.2c0,0,0.1-0.1,0-0.1c0-0.1-0.1-0.1-0.1-0.1l-0.5-0.1c0,0,0,0-0.1,0c0,0-0.1,0-0.1,0
					c-1.4,0.7-2.3,1.6-2.2,2.6c0,0.1,0.5,3.7,0.5,3.7v0c0.2,1.9,3.7,3.3,8,3C24.5,28.8,27.9,27,27.7,25z"/>
				<g>
					<path class="st6" d="M26.9,23.2c-1.3,1.2-3.8,2.2-6.9,2.4c-0.1,0-0.2,0-0.4,0l0.2,3.5c0.1,0,0.2,0,0.3,0c3-0.2,5.5-1.1,6.8-2.3
						L26.9,23.2z"/>
					<path class="st7" d="M26.4,23.6c-1.3,1-3.6,1.7-6.2,2l0.2,3.5c2.6-0.2,4.8-0.9,6.1-1.9L26.4,23.6z"/>
					<path class="st9" d="M13.3,24.4l0.4,3.5c0.5,0.3,1.1,0.5,1.7,0.7l-0.3-3.5C14.4,25,13.8,24.7,13.3,24.4z"/>
					<path class="st10" d="M14,24.8l0.4,3.5c0.3,0.1,0.6,0.2,0.9,0.3l-0.3-3.5C14.6,25,14.3,24.9,14,24.8z"/>
					<path class="st1" d="M14.6,25l0.3,3.5c0.3,0.1,0.6,0.2,0.9,0.2l-0.3-3.5C15.2,25.2,14.9,25.1,14.6,25z"/>
					<path class="st0" d="M15.3,25.2l0.2,3.5c0.4,0.1,0.8,0.2,1.2,0.3l-0.2-3.5C16.1,25.4,15.7,25.3,15.3,25.2z"/>
					<path class="st11" d="M15.9,25.3l0.3,3.5c0.1,0,0.2,0,0.3,0.1l-0.2-3.5C16.1,25.4,16,25.4,15.9,25.3z"/>
					<path class="st12" d="M16.3,25.4l0.3,3.5c0.1,0,0.2,0,0.4,0.1l-0.2-3.5C16.5,25.4,16.4,25.4,16.3,25.4z"/>
					<path class="st13" d="M16.6,25.5l0.2,3.5c0.4,0.1,0.8,0.1,1.2,0.1l-0.2-3.5C17.3,25.5,16.9,25.5,16.6,25.5z"/>
					<path class="st14" d="M17,25.5l0.2,3.5c0.1,0,0.2,0,0.4,0l-0.2-3.5C17.2,25.5,17.1,25.5,17,25.5z"/>
					<path class="st15" d="M17.4,25.5l0.2,3.5c0.1,0,0.3,0,0.4,0l-0.2-3.5C17.6,25.6,17.5,25.6,17.4,25.5z"/>
					<path class="st16" d="M17.7,25.6l0.2,3.5c0.1,0,0.3,0,0.4,0l-0.2-3.5C18,25.6,17.9,25.6,17.7,25.6z"/>
					<path class="st17" d="M18.1,25.6l0.2,3.5c0.1,0,0.2,0,0.4,0l-0.2-3.5C18.4,25.6,18.2,25.6,18.1,25.6z"/>
					<path class="st18" d="M18.5,25.6l0.2,3.5c0.1,0,0.3,0,0.4,0l-0.2-3.5C18.8,25.6,18.6,25.6,18.5,25.6z"/>
					<path class="st1" d="M20.7,25.5l0.2,3.5c2.1-0.2,3.9-0.8,5.1-1.5l-0.1-3.6C24.7,24.7,22.8,25.3,20.7,25.5z"/>
				</g>
			</g>
			<g>
				<path class="st5" d="M27.7,31.1c0-0.8-0.8-1.7-1.7-2.2c0,0,0,0-0.1,0c0,0-0.1,0-0.1,0l-0.3,0.2c0,0,0,0,0,0.1c0,0.1,0,0.1,0,0.1
					c0.9,0.6,1.2,1.2,1.2,1.8c0.1,1.5-2.5,3.3-6.3,3.5c-3.7,0.2-6.4-1.1-6.6-2.7c-0.1-0.9,0.5-1.6,1-2c0,0,0-0.1,0-0.1
					c0-0.1-0.1-0.1-0.1-0.1l-0.4-0.1c0,0,0,0,0,0c0,0,0,0,0,0c-0.7,0.4-1.4,1.4-1.4,2.4c0,0.1,0,0.3,0,0.3l0.8,6.6
					c0.3,2.1,3.5,3.6,7.2,3.4c3.7-0.2,6.7-2.1,6.7-4.2C27.7,38,27.7,31.3,27.7,31.1z"/>
				<g>
					<path class="st0" d="M16,35l0.4,6.5c0.4,0.2,0.7,0.3,1.2,0.4l-0.4-6.6C16.7,35.2,16.3,35.1,16,35z"/>
					<path class="st11" d="M16.6,35.2l0.5,6.6c0.1,0,0.2,0.1,0.3,0.1L17,35.3C16.9,35.3,16.8,35.3,16.6,35.2z"/>
					<path class="st12" d="M17,35.3l0.5,6.6c0.1,0,0.2,0.1,0.4,0.1l-0.5-6.6C17.2,35.4,17.1,35.3,17,35.3z"/>
					<path class="st13" d="M17.3,35.4l0.4,6.6c0.4,0.1,1,0.2,1.4,0.2l-0.7-6.7C18.1,35.5,17.7,35.4,17.3,35.4z"/>
					<path class="st14" d="M17.7,35.4l0.4,6.6c0.1,0,0.3,0,0.4,0.1L18,35.5C17.9,35.5,17.8,35.5,17.7,35.4z"/>
					<path class="st15" d="M18,35.5l0.4,6.6c0.1,0,0.3,0,0.4,0.1l-0.5-6.7C18.3,35.5,18.1,35.5,18,35.5z"/>
					<path class="st16" d="M18.4,35.5l0.4,6.7c0.4,0.1,0.7,0.1,1.1,0.1l-0.4-6.7C19.1,35.6,18.7,35.6,18.4,35.5z"/>
					<path class="st17" d="M18.8,35.6l0.4,6.7c0.1,0,0.3,0,0.4,0l-0.5-6.7C19,35.6,18.9,35.6,18.8,35.6z"/>
					<path class="st18" d="M19.1,35.6l0.4,6.7c0.1,0,0.3,0,0.4,0l-0.4-6.7C19.4,35.6,19.2,35.6,19.1,35.6z"/>
					<path class="st6" d="M20.5,35.6c-0.1,0-0.2,0-0.3,0l0.4,6.7c0.1,0,0.2,0,0.3,0c2.7-0.2,5.1-1.2,6.1-2.6L27,33
						C25.9,34.4,23.5,35.4,20.5,35.6z"/>
					<path class="st7" d="M26.7,40.1l-0.1-6.6c-1.2,1.1-3.2,2-5.8,2.1l0.4,6.7C23.5,42.1,25.5,41.2,26.7,40.1
						C26.7,40.1,26.7,40.1,26.7,40.1z"/>
					<path class="st1" d="M21.2,35.5l0.4,6.7c1.9-0.2,3.6-0.9,4.7-1.7l-0.1-6.6C25,34.7,23.3,35.3,21.2,35.5z"/>
					<path class="st9" d="M14.4,34.3l0.7,6.6c0.4,0.3,0.9,0.6,1.5,0.8L16,35C15.4,34.8,14.8,34.6,14.4,34.3z"/>
					<path class="st10" d="M15,34.6l0.7,6.6c0.2,0.1,0.5,0.2,0.7,0.4L15.8,35C15.5,34.9,15.2,34.7,15,34.6z"/>
					<path class="st1" d="M15.6,34.9l0.6,6.6c0.2,0.1,0.5,0.2,0.7,0.3l-0.5-6.6C16.1,35.1,15.8,35,15.6,34.9z"/>
				</g>
			</g>
			<g>
				<path class="st5" d="M27.7,41.9c0-0.2,0-0.5-0.2-0.7c-0.1-0.1-0.2-0.2-0.3-0.1c0,0-0.1,0-0.1,0.1c0,0.2,0,0.3-0.1,0.4
					c-0.2,1.1-0.9,1.8-1.3,2.1c-1,0.9-2.6,1.6-4.7,1.7c-2.2,0.1-4-0.4-5-1.3c-0.3-0.2-1-0.8-1.4-2.1c-0.1-0.1-0.2-0.1-0.3,0
					c-0.1,0.1-0.1,0.3-0.2,0.4c0,0.1,0,0.2,0,0.3c0,0.1,0,0.2,0,0.2l1.1,9c0.3,2.2,3.1,3.8,6.4,3.6c3.4-0.2,6-2.2,5.9-4.5
					C27.7,51,27.7,42,27.7,41.9z"/>
				<g>
					<path class="st9" d="M15.6,45l1,8.9c0.4,0.3,0.8,0.6,1.3,0.9l-0.8-9C16.4,45.6,15.9,45.3,15.6,45z"/>
					<path class="st10" d="M16.1,45.4l0.9,8.9c0.2,0.1,0.4,0.3,0.6,0.4l-0.8-8.9C16.5,45.6,16.3,45.5,16.1,45.4z"/>
					<path class="st0" d="M17.1,45.9l0.6,8.9c0.3,0.2,0.7,0.3,1,0.4l-0.6-9C17.8,46.1,17.4,46,17.1,45.9z"/>
					<path class="st11" d="M17.4,46l0.7,8.9c0.1,0.1,0.2,0.1,0.3,0.1l-0.6-9C17.7,46.1,17.6,46,17.4,46z"/>
					<path class="st12" d="M17.7,46.1l0.6,9c0.1,0,0.2,0.1,0.3,0.1l-0.6-9C18,46.1,17.9,46.1,17.7,46.1z"/>
					<path class="st13" d="M18,46.2l0.6,9c0.3,0.1,0.7,0.2,1.1,0.3l-0.6-9.1C18.8,46.3,18.4,46.2,18,46.2z"/>
					<path class="st14" d="M18.4,46.2l0.6,9c0.1,0,0.3,0.1,0.4,0.1l-0.6-9C18.7,46.3,18.5,46.3,18.4,46.2z"/>
					<path class="st15" d="M18.7,46.3l0.6,9c0.1,0,0.3,0.1,0.4,0.1l-0.6-9.1C19,46.3,18.9,46.3,18.7,46.3z"/>
					<path class="st16" d="M19.1,46.4l0.6,9c0.3,0.1,0.7,0.1,1,0.1l-0.6-9.1C19.8,46.4,19.4,46.4,19.1,46.4z"/>
					<path class="st17" d="M19.4,46.4l0.6,9.1c0.1,0,0.3,0,0.4,0l-0.6-9.1C19.7,46.4,19.6,46.4,19.4,46.4z"/>
					<path class="st18" d="M19.8,46.4l0.6,9.1c0.1,0,0.3,0,0.4,0l-0.6-9.1C20,46.4,19.9,46.4,19.8,46.4z"/>
					<path class="st6" d="M21.3,46.4c-0.1,0-0.2,0-0.3,0l0.6,9.1c0.1,0,0.2,0,0.3,0c2.5-0.1,4.6-1.3,5.5-2.8l-0.1-8.9
						C26.2,45.2,24.1,46.3,21.3,46.4z"/>
					<path class="st7" d="M21.4,46.4l0.5,9.1c2.2-0.2,4-1.1,5-2.3c0,0,0,0,0,0l-0.2-8.9C25.7,45.4,23.9,46.3,21.4,46.4z"/>
					<path class="st1" d="M21.8,46.4l0.5,9.1c1.7-0.2,3.2-0.9,4.2-1.8l-0.2-8.9C25.4,45.6,23.8,46.2,21.8,46.4z"/>
					<path class="st1" d="M16.6,45.6l0.8,8.9c0.2,0.1,0.4,0.2,0.5,0.3l-0.7-8.9C17,45.8,16.8,45.7,16.6,45.6z"/>
				</g>
			</g>
			<g>
				<path class="st5" d="M27.7,54.3C27.7,54.3,27.7,54.2,27.7,54.3c-0.1-0.1-0.2-0.1-0.2-0.1c-0.1,0-0.1,0.1-0.1,0.2
					c-0.1,0.3-0.5,1-1.1,1.6c-0.4,0.4-0.8,0.7-1.2,0.9c-0.7,0.4-1.7,0.7-2.9,0.8c-0.1,0-0.1,0-0.2,0c-0.1,0-0.3,0-0.3,0
					c-0.5,0-1,0-1.4-0.1c-0.5-0.1-0.9-0.2-1.3-0.4c-0.6-0.2-1.1-0.6-1.6-1c-0.8-0.7-1.2-1.5-1.2-1.5c0,0-0.1-0.1-0.1-0.1
					c-0.2,0-0.2,0.1-0.2,0.2c0,0,0,0,0,0l1.4,11.8c0.2,1.9,2.6,3.8,5.5,3.6c3.1-0.2,4.9-2.3,5-4.2L27.7,54.3
					C27.7,54.4,27.7,54.3,27.7,54.3z M15.9,55.6c-0.1-0.2-0.1-0.3-0.1-0.5C15.8,55.3,15.8,55.5,15.9,55.6z"/>
				<g>
					<path class="st9" d="M16.9,57.2l1.2,11.6c0.3,0.3,0.6,0.6,1,0.8l-1-11.5C17.6,57.8,17.2,57.5,16.9,57.2z"/>
					<path class="st0" d="M18.1,58l0.7,11.3c0.3,0.2,0.7,0.4,1.1,0.6l-0.7-11.5C18.8,58.3,18.4,58.2,18.1,58z"/>
					<path class="st11" d="M18.4,58.2l0.9,11.4c0.3,0.2,0.5,0.3,0.7,0.3L19,58.4C18.8,58.3,18.6,58.3,18.4,58.2z"/>
					<path class="st12" d="M18.6,58.3l0.8,11.5c0.1,0.1,0.2,0.1,0.3,0.1l-0.8-11.5C18.8,58.3,18.7,58.3,18.6,58.3z"/>
					<path class="st13" d="M18.9,58.4l0.8,11.5c0.1,0.1,0.2,0.1,0.3,0.1l-0.8-11.5C19.1,58.4,19,58.4,18.9,58.4z"/>
					<path class="st14" d="M19.2,58.5L19.9,70c0.3,0.1,0.5,0.2,0.9,0.3l-0.6-11.6C19.9,58.6,19.5,58.6,19.2,58.5z"/>
					<path class="st15" d="M19.5,58.6l0.8,11.5c0.1,0,0.3,0.1,0.4,0.1l-0.8-11.6C19.8,58.6,19.6,58.6,19.5,58.6z"/>
					<path class="st16" d="M19.9,58.6l0.7,11.6c0.1,0,0.3,0.1,0.4,0.1l-0.7-11.6C20.1,58.7,20,58.7,19.9,58.6z"/>
					<path class="st17" d="M20.2,58.7l0.7,11.6c0.1,0,0.2,0,0.4,0.1l-0.7-11.6C20.5,58.7,20.3,58.7,20.2,58.7z"/>
					<path class="st18" d="M20.6,58.7l0.7,11.6c0.1,0,0.2,0,0.3,0l-0.7-11.6C20.8,58.7,20.7,58.7,20.6,58.7z"/>
					<path class="st6" d="M21.9,58.8c-0.1,0-0.2,0-0.2,0l0.7,11.6c0.1,0,0.1,0,0.2,0c2.6-0.2,4.2-1.6,4.8-3.2l-0.1-11.1
						C26.5,57.6,24.6,58.6,21.9,58.8z"/>
					<path class="st7" d="M22.1,58.8l0.7,11.6c2.1-0.2,3.6-1.3,4.4-2.6c0,0,0-0.1,0-0.1L27,56.6C26.1,57.8,24.4,58.6,22.1,58.8z"/>
					<path class="st1" d="M22.5,58.7l0.6,11.6c1.7-0.3,2.9-1.1,3.7-2.1L26.6,57C25.7,57.9,24.3,58.5,22.5,58.7z"/>
					<path class="st1" d="M17.7,57.8l1.1,11.5c0.1,0.1,0.2,0.2,0.4,0.2l-0.9-11.5C18,58,17.9,57.9,17.7,57.8z"/>
					<path class="st10" d="M17.3,57.5l1.2,11.5c0.1,0.1,0.3,0.2,0.4,0.3l-1-11.5C17.7,57.8,17.5,57.7,17.3,57.5z"/>
				</g>
			</g>
		</g>
	</g>
</g>
<g id="Kategorie">
	<path class="st1" d="M42.3,139.4l3.6,17.3h-2.4l-0.9-4.5H39l-0.8,4.5h-2.4l3.8-17.3H42.3z M39.4,150.3h2.9l-1.4-8.4L39.4,150.3z"/>
	<path class="st1" d="M49.2,144.7v9.3c0,0.8,0.1,1.3,0.8,1.3c0.6,0,1-0.4,1-1.2v-9.3h2.3v12h-2.1v-1c-0.6,0.8-1.2,1.1-2.1,1.1
		c-1.5,0-2.1-0.9-2.1-2.5v-9.7H49.2z"/>
	<path class="st1" d="M59.1,141.1h-0.5c-0.6,0-0.9,0.4-0.9,1v2.6h1.4v1.6h-1.4v10.4h-2.3v-10.4h-1.1v-1.6h1.1v-3
		c0-1.6,0.6-2.4,2.6-2.4h1V141.1z"/>
	<path class="st1" d="M65.4,146.9v1.7h-2v-1.2c0-0.9-0.2-1.3-0.8-1.3c-0.5,0-0.7,0.4-0.7,0.9v0.6c0,0.8,0.5,1.3,1.4,2.1l0.9,0.8
		c1,0.8,1.4,1.5,1.4,2.8v0.7c0,2.3-1.3,2.9-3.2,2.9c-1.7,0-2.8-0.8-2.8-2.3v-1.9h2.2v1.6c0,0.7,0.2,1,0.8,1c0.6,0,0.8-0.3,0.8-1.1
		v-0.8c0-0.8-0.2-1.1-1.2-2l-0.9-0.8c-1.1-0.9-1.6-1.4-1.6-2.9c0-2.3,0.8-3.2,3.1-3.2C64.6,144.5,65.4,145.4,65.4,146.9z"/>
	<path class="st1" d="M69.7,144.7h1.5v1.6h-1.5v7.8c0,0.7,0.2,1.1,1.1,1.1c0.1,0,0.3,0,0.6,0v1.6c-0.5,0-0.9,0-1.6,0
		c-1.8,0-2.3-0.6-2.3-1.9v-8.6h-1.2v-1.6h1.2v-2.3l2.3-0.8V144.7z"/>
	<path class="st1" d="M74,151.4v2.6c0,0.9,0.3,1.3,1.1,1.3c0.9,0,1.1-0.6,1.1-1.7v-0.9h2.1v1.7c0,1.6-1.4,2.4-3.3,2.4
		c-2.3,0-3.3-0.9-3.3-3.2v-6c0-1.9,1-3.2,3.4-3.2c2.3,0,3.1,1.2,3.1,3.2v3.7H74z M76.2,149.9v-2.2c0-1.4-0.4-1.7-1.1-1.7
		c-0.6,0-1.1,0.3-1.1,1.3v2.5H76.2z"/>
	<path class="st1" d="M82.3,139.4v2.4h-2.5v-2.4H82.3z M82.2,144.7v12h-2.3v-12H82.2z"/>
	<path class="st1" d="M88.1,144.7h2.1v12.9c0,2.4-0.9,3.6-3.3,3.6c-1.9,0-2.9-0.9-2.9-2.4v-1h2.3v0.9c0,0.7,0.2,1.1,0.8,1.1
		s0.9-0.3,0.9-1.3v-3c-0.5,0.7-1.1,1-1.9,1c-1.6,0-2.3-1.2-2.3-2.7v-6.2c0-1.8,0.7-3,2.3-3c0.8,0,1.4,0.4,2,1.2V144.7z M86.1,147.5
		v5.8c0,1.1,0.3,1.7,1,1.7c0.7,0,0.9-0.5,0.9-1.5v-5.8c0-0.9-0.2-1.5-1-1.5C86.5,146.1,86.1,146.4,86.1,147.5z"/>
	<path class="st1" d="M94.1,151.4v2.6c0,0.9,0.3,1.3,1.1,1.3c0.9,0,1.1-0.6,1.1-1.7v-0.9h2.1v1.7c0,1.6-1.4,2.4-3.3,2.4
		c-2.3,0-3.3-0.9-3.3-3.2v-6c0-1.9,1-3.2,3.4-3.2c2.3,0,3.1,1.2,3.1,3.2v3.7H94.1z M96.2,149.9v-2.2c0-1.4-0.4-1.7-1.1-1.7
		c-0.6,0-1.1,0.3-1.1,1.3v2.5H96.2z"/>
	<path class="st1" d="M104,146.9h-0.1c-1.2,0-1.7,0.5-1.7,1.5v8.4h-2.3v-12h2.2v1.2c0.6-1,1-1.3,2-1.3V146.9z"/>
	<path class="st5" d="M38.4,31.6c1.6,0,1.7,0.8,1.7,2.2c0,1.6-0.2,2-1.1,2.1c1.1,0.2,1.2,0.6,1.2,2c0,1.6,0,2.6-2,2.6h-2v-9H38.4z
		 M37.4,35.5H38c0.8,0,0.9-0.1,0.9-1.7c0-0.8-0.1-1.1-1-1.1h-0.5V35.5z M37.4,39.6h0.7c0.7,0,0.9-0.1,0.9-1.5c0-1.5-0.1-1.6-0.8-1.6
		h-0.8V39.6z"/>
	<path class="st5" d="M44.5,31.6l1.8,9h-1.2l-0.5-2.3h-1.9l-0.4,2.3h-1.3l2-9H44.5z M43,37.3h1.5l-0.7-4.3L43,37.3z"/>
	<path class="st5" d="M47.3,31.6l1.1,3.8l1.2-3.8h1.1L49,36.9v3.7h-1.2v-3.7L46,31.6H47.3z"/>
	<path class="st5" d="M55.2,31.6v1h-2.1v2.8h2v1h-2v3h2.1v1h-3.4v-9H55.2z"/>
	<path class="st5" d="M58.3,31.6c1.8,0,1.9,0.7,1.9,2.5c0,1.1-0.2,1.7-1.2,1.9c0.8,0.1,1.1,0.5,1.1,1.4v2.1c0,0.1,0,0.6,0.1,1h-1.2
		C59,40.4,59,40.1,59,39.9v-2.3c0-0.8-0.3-1-0.9-1h-0.5v4h-1.2v-9H58.3z M57.6,35.6h0.4c0.9,0,1.1-0.2,1.1-1.4
		c0-1.4-0.1-1.5-0.8-1.5h-0.6V35.6z"/>
	<path class="st5" d="M62.8,31.6v9h-1.2v-9H62.8z"/>
	<path class="st5" d="M68,33.2V34h-1.2v-0.6c0-0.7-0.3-0.9-0.7-0.9c-0.5,0-0.8,0.3-0.8,1c0,0.7,0.2,1.1,1.1,2c1.3,1.3,1.6,1.7,1.6,3
		c0,1.6-0.7,2.2-2.1,2.2c-1.1,0-1.9-0.6-1.9-1.6V38h1.2v0.6c0,0.7,0.2,1,0.8,1c0.6,0,0.8-0.4,0.8-1.1s-0.3-1.1-1-1.9
		c-1.2-1.2-1.7-1.8-1.7-3.1c0-1.4,0.7-2,2-2C67.3,31.6,68,32.2,68,33.2z"/>
	<path class="st5" d="M73.1,33.2V34H72v-0.5c0-0.6-0.2-1-0.7-1c-0.5,0-0.8,0.4-0.8,1.5v4c0,0.5,0,1.6,0.8,1.6c0.5,0,0.7-0.4,0.7-1.1
		V38h1.2v1c0,1.2-0.6,1.7-1.8,1.7c-1.4,0-2-0.7-2-2V34c0-1.3,0.2-2.5,2-2.5C72.5,31.5,73.1,32.2,73.1,33.2z"/>
	<path class="st5" d="M75.5,31.6v3.8h1.7v-3.8h1.2v9h-1.2v-4.1h-1.7v4.1h-1.2v-9H75.5z"/>
	<path class="st5" d="M83.2,31.6v1h-2.1v2.8h2v1h-2v3h2.1v1h-3.4v-9H83.2z"/>
	<path class="st5" d="M86.3,31.6c1.8,0,1.9,0.7,1.9,2.5c0,1.1-0.2,1.7-1.2,1.9c0.8,0.1,1.1,0.5,1.1,1.4v2.1c0,0.1,0,0.6,0.1,1h-1.2
		c-0.1-0.2-0.1-0.4-0.1-0.7v-2.3c0-0.8-0.3-1-0.9-1h-0.5v4h-1.2v-9H86.3z M85.5,35.6h0.4c0.9,0,1.1-0.2,1.1-1.4
		c0-1.4-0.1-1.5-0.8-1.5h-0.6V35.6z"/>
	<path class="st1" d="M40.3,46v0.8h-1.2v-0.4c0-0.8-0.3-1.1-0.8-1.1c-0.6,0-0.9,0.4-0.9,1.4v4.5c0,0.7,0.3,1.3,1,1.3
		c0.2,0,0.5,0,0.7-0.1v-2.7h-0.8v-1h2v4.5c-0.6,0.1-1.5,0.2-2,0.2c-1.4,0-2.1-0.7-2.1-2v-4.9c0-1.5,0.5-2.2,2.1-2.2
		C39.7,44.3,40.3,44.9,40.3,46z"/>
	<path class="st1" d="M43.8,44.4c1.8,0,1.9,0.7,1.9,2.5c0,1.1-0.2,1.7-1.2,1.9c0.8,0.1,1.1,0.5,1.1,1.4v2.1c0,0.1,0,0.6,0.1,1h-1.2
		c-0.1-0.2-0.1-0.4-0.1-0.7v-2.3c0-0.8-0.3-1-0.9-1H43v4h-1.2v-9H43.8z M43,48.3h0.4c0.9,0,1.1-0.2,1.1-1.4c0-1.4-0.1-1.5-0.8-1.5
		H43V48.3z"/>
	<path class="st1" d="M48.3,44.4v7c0,0.7,0.3,1,0.9,1c0.8,0,0.9-0.6,0.9-1.2v-6.8h1.2v6.9c0,1.4-0.7,2.1-2.1,2.1
		c-1.5,0-2.1-0.8-2.1-1.8v-7.2H48.3z M48.6,42.4v1.2h-1v-1.2H48.6z M50.6,42.4v1.2h-1v-1.2H50.6z"/>
	<path class="st1" d="M54.4,44.4l1.5,7.4v-7.4H57v9h-1.7l-1.6-7.6v7.6h-1.1v-9H54.4z"/>
	<path class="st1" d="M60.6,44.4c2,0,2,1.2,2,3.2v3c0,1.8-0.2,2.8-2.3,2.8h-1.9v-9H60.6z M59.7,52.3h0.6c0.9,0,1.1-0.4,1.1-1.9v-3.5
		c0-1.2-0.2-1.4-1.2-1.4h-0.5V52.3z"/>
	<path class="st1" d="M67.4,44.4v1h-2.1v2.8h2v1h-2v3h2.1v1H64v-9H67.4z"/>
	<path class="st1" d="M70.5,44.4c1.8,0,1.9,0.7,1.9,2.5c0,1.1-0.2,1.7-1.2,1.9c0.8,0.1,1.1,0.5,1.1,1.4v2.1c0,0.1,0,0.6,0.1,1h-1.2
		c-0.1-0.2-0.1-0.4-0.1-0.7v-2.3c0-0.8-0.3-1-0.9-1h-0.5v4h-1.2v-9H70.5z M69.7,48.3h0.4c0.9,0,1.1-0.2,1.1-1.4
		c0-1.4-0.1-1.5-0.8-1.5h-0.6V48.3z"/>
	<path class="st1" d="M38.3,57.1c1.8,0,1.9,0.8,1.9,2.6c0,1.7-0.2,2.5-1.8,2.5h-1v3.9h-1.2v-9H38.3z M37.4,61.1H38
		c0.9,0,0.9-0.1,0.9-1.6c0-1.2-0.1-1.4-0.8-1.4h-0.8V61.1z"/>
	<path class="st1" d="M43.5,57.1c1.8,0,1.9,0.7,1.9,2.5c0,1.1-0.2,1.7-1.2,1.9c0.8,0.1,1.1,0.5,1.1,1.4v2.1c0,0.1,0,0.6,0.1,1h-1.2
		c-0.1-0.2-0.1-0.4-0.1-0.7v-2.3c0-0.8-0.3-1-0.9-1h-0.5v4h-1.2v-9H43.5z M42.8,61.1h0.4c0.9,0,1.1-0.2,1.1-1.4
		c0-1.4-0.1-1.5-0.8-1.5h-0.6V61.1z"/>
	<path class="st1" d="M50.2,57.1v1h-2.1V61h2v1h-2v3h2.1v1h-3.4v-9H50.2z"/>
	<path class="st1" d="M52.5,57.1v9h-1.2v-9H52.5z"/>
	<path class="st1" d="M57.6,58.7v0.8h-1.2v-0.6c0-0.7-0.3-0.9-0.7-0.9c-0.5,0-0.8,0.3-0.8,1c0,0.7,0.2,1.1,1.1,2
		c1.3,1.3,1.6,1.7,1.6,3c0,1.6-0.7,2.2-2.1,2.2c-1.1,0-1.9-0.6-1.9-1.6v-1.1h1.2v0.6c0,0.7,0.2,1,0.8,1c0.6,0,0.8-0.4,0.8-1.1
		s-0.3-1.1-1-1.9c-1.2-1.2-1.7-1.8-1.7-3.1c0-1.4,0.7-2,2-2C56.9,57.1,57.6,57.7,57.6,58.7z"/>
	<g>
		<path class="st1" d="M65.4,59.1c0,1.6-0.3,1.8-1.1,3.4L63,65h2.6v1.1h-3.8v-1.2c0.4-0.7,0.9-1.5,1.3-2.4c0.9-1.8,1.2-2.2,1.2-3.4
			c0-0.8-0.2-1.1-0.7-1.1c-0.4,0-0.6,0.3-0.6,1v0.5h-1.1v-0.7c0-1.4,0.5-1.7,1.8-1.7C65.1,57,65.4,57.7,65.4,59.1z"/>
		<path class="st1" d="M70.4,64.2c0,1.2-0.3,2-1.9,2c-1.5,0-1.8-0.8-1.8-2V59c0-1.5,0.6-2,1.9-2c1.3,0,1.8,0.5,1.8,2V64.2z M67.9,59
			v5.2c0,0.6,0.2,1,0.6,1c0.5,0,0.7-0.4,0.7-1v-5.4c0-0.6-0.2-0.9-0.7-0.9C68.2,58,67.9,58.2,67.9,59z"/>
		<path class="st1" d="M73.8,57.1v9h-1.2v-7.3c-0.3,0.4-0.6,0.7-1,0.9v-1.2c0.4-0.4,1-1,1.1-1.5H73.8z"/>
		<path class="st1" d="M78.9,58.7v1.2c0,0.9-0.3,1.4-0.9,1.5c0.7,0.1,1,0.6,1,1.5v1.5c0,1-0.4,1.7-1.9,1.7c-1.3,0-1.8-0.6-1.8-1.9
			V63c0-0.9,0.3-1.4,1-1.5c-0.6-0.2-1-0.6-1-1.6v-0.9c0-1.3,0.5-1.9,1.8-1.9C78.3,57,78.9,57.6,78.9,58.7z M77.8,62.8
			c0-0.6-0.1-0.9-0.7-0.9c-0.5,0-0.7,0.4-0.7,0.9v1.6c0,0.6,0.2,0.8,0.7,0.8c0.6,0,0.7-0.3,0.7-0.9V62.8z M77.7,60.1v-1.4
			c0-0.5-0.1-0.8-0.6-0.8c-0.5,0-0.6,0.4-0.6,0.9v1c0,0.5,0.1,1,0.6,1C77.6,61,77.7,60.5,77.7,60.1z"/>
	</g>
	<g>
		<path class="st1" d="M39.9,123.3v1.1h-2.3v2.9h2.2v1.1h-2.2v4.3h-1.3v-9.4H39.9z"/>
		<path class="st1" d="M41.7,123.3v1.3h-1.4v-1.3H41.7z M41.7,126.2v6.5h-1.2v-6.5H41.7z"/>
		<path class="st1" d="M43.8,126.8c0.3-0.4,0.6-0.6,1.1-0.6c0.8,0,1.1,0.5,1.1,1.3v5.3h-1.2v-5.1c0-0.5-0.1-0.6-0.5-0.6
			c-0.4,0-0.5,0.2-0.5,0.6v5.1h-1.2v-6.5h1.2V126.8z"/>
		<path class="st1" d="M50.4,127.7v5h-1.1V132c-0.5,0.6-0.7,0.8-1.2,0.8c-0.8,0-1.2-0.4-1.2-1.8c0-0.7,0-1.1,0.2-1.5
			c0.2-0.4,0.4-0.6,0.8-0.7c0.3-0.1,0.7-0.1,1.4-0.1v-1.1c0-0.4-0.1-0.6-0.5-0.6c-0.4,0-0.5,0.2-0.5,0.6v0.6h-1.2v-0.6
			c0-0.9,0.5-1.4,1.7-1.4C49.7,126.1,50.4,126.5,50.4,127.7z M48.5,131.9c0.4,0,0.6-0.3,0.6-0.8v-1.7h-0.4c-0.6,0-0.7,0.4-0.7,1.3
			C48,131.8,48.1,131.9,48.5,131.9z"/>
		<path class="st1" d="M52.5,123.3v9.4h-1.2v-9.4H52.5z"/>
		<path class="st1" d="M54.8,123.3v1.3h-1.4v-1.3H54.8z M54.7,126.2v6.5h-1.2v-6.5H54.7z"/>
		<path class="st1" d="M58.6,127.4v0.9h-1.1v-0.7c0-0.5-0.1-0.7-0.4-0.7c-0.3,0-0.4,0.2-0.4,0.5v0.3c0,0.4,0.2,0.7,0.7,1.1l0.5,0.4
			c0.5,0.4,0.8,0.8,0.8,1.5v0.4c0,1.3-0.7,1.6-1.7,1.6c-0.9,0-1.5-0.4-1.5-1.2v-1h1.2v0.9c0,0.4,0.1,0.5,0.4,0.5
			c0.4,0,0.5-0.2,0.5-0.6v-0.4c0-0.4-0.1-0.6-0.7-1.1l-0.5-0.4c-0.6-0.5-0.9-0.8-0.9-1.6c0-1.2,0.5-1.8,1.7-1.8
			C58.2,126.1,58.6,126.6,58.6,127.4z"/>
		<path class="st1" d="M60.9,126.2h0.8v0.9h-0.8v4.2c0,0.4,0.1,0.6,0.6,0.6c0.1,0,0.2,0,0.3,0v0.9c-0.3,0-0.5,0-0.9,0
			c-1,0-1.3-0.3-1.3-1v-4.6h-0.7v-0.9h0.7V125l1.2-0.4V126.2z"/>
		<path class="st1" d="M65.9,123.3v4.3l2-4.3h1.4l-2.2,4.4l2.3,5H68l-2.1-4.7v4.7h-1.3v-9.4H65.9z"/>
		<path class="st1" d="M73.3,127.7v5h-1.1V132c-0.5,0.6-0.7,0.8-1.2,0.8c-0.8,0-1.2-0.4-1.2-1.8c0-0.7,0-1.1,0.2-1.5
			c0.2-0.4,0.4-0.6,0.8-0.7c0.3-0.1,0.7-0.1,1.4-0.1v-1.1c0-0.4-0.1-0.6-0.5-0.6c-0.4,0-0.5,0.2-0.5,0.6v0.6h-1.2v-0.6
			c0-0.9,0.5-1.4,1.7-1.4C72.6,126.1,73.3,126.5,73.3,127.7z M71.4,131.9c0.4,0,0.6-0.3,0.6-0.8v-1.7h-0.4c-0.6,0-0.7,0.4-0.7,1.3
			C70.9,131.8,71,131.9,71.4,131.9z"/>
		<path class="st1" d="M75.7,126.2h0.8v0.9h-0.8v4.2c0,0.4,0.1,0.6,0.6,0.6c0.1,0,0.2,0,0.3,0v0.9c-0.3,0-0.5,0-0.9,0
			c-1,0-1.3-0.3-1.3-1v-4.6h-0.7v-0.9h0.7V125l1.2-0.4V126.2z"/>
		<path class="st1" d="M78,129.8v1.4c0,0.5,0.2,0.7,0.6,0.7c0.5,0,0.6-0.3,0.6-0.9v-0.5h1.1v0.9c0,0.9-0.7,1.3-1.8,1.3
			c-1.2,0-1.8-0.5-1.8-1.7v-3.2c0-1.1,0.5-1.7,1.9-1.7c1.2,0,1.7,0.7,1.7,1.7v2H78z M79.2,129v-1.2c0-0.7-0.2-0.9-0.6-0.9
			c-0.3,0-0.6,0.2-0.6,0.7v1.4H79.2z"/>
		<path class="st1" d="M83.5,126.2h1.1v7c0,1.3-0.5,2-1.8,2c-1,0-1.5-0.5-1.5-1.3v-0.5h1.2v0.5c0,0.4,0.1,0.6,0.4,0.6
			c0.3,0,0.5-0.2,0.5-0.7V132c-0.2,0.4-0.6,0.5-1,0.5c-0.9,0-1.2-0.7-1.2-1.4v-3.4c0-1,0.4-1.6,1.2-1.6c0.5,0,0.8,0.2,1.1,0.7V126.2
			z M82.4,127.7v3.1c0,0.6,0.2,0.9,0.5,0.9c0.4,0,0.5-0.3,0.5-0.8v-3.1c0-0.5-0.1-0.8-0.5-0.8C82.6,127,82.4,127.1,82.4,127.7z"/>
		<path class="st1" d="M89,127.8v3.2c0,1.2-0.6,1.8-1.8,1.8c-1.1,0-1.7-0.6-1.7-1.8v-3.2c0-1,0.6-1.7,1.8-1.7
			C88.4,126.1,89,126.7,89,127.8z M86.7,127.8v3.4c0,0.5,0.1,0.8,0.5,0.8s0.5-0.3,0.5-1v-3.1c0-0.8-0.3-0.9-0.5-0.9
			C86.9,127,86.7,127.2,86.7,127.8z"/>
		<path class="st1" d="M92.1,127.4L92.1,127.4c-0.7,0-1,0.3-1,0.8v4.6h-1.2v-6.5H91v0.7c0.3-0.6,0.6-0.7,1.1-0.7V127.4z"/>
		<path class="st1" d="M93.8,123.3v1.3h-1.4v-1.3H93.8z M93.7,126.2v6.5h-1.2v-6.5H93.7z"/>
		<path class="st1" d="M95.9,129.8v1.4c0,0.5,0.2,0.7,0.6,0.7c0.5,0,0.6-0.3,0.6-0.9v-0.5h1.1v0.9c0,0.9-0.7,1.3-1.8,1.3
			c-1.2,0-1.8-0.5-1.8-1.7v-3.2c0-1.1,0.5-1.7,1.9-1.7c1.2,0,1.7,0.7,1.7,1.7v2H95.9z M97,129v-1.2c0-0.7-0.2-0.9-0.6-0.9
			c-0.3,0-0.6,0.2-0.6,0.7v1.4H97z"/>
	</g>
</g>
</svg>
